<svg width="256" height="256" viewBox="0 0 256 256" fill="none" xmlns="http://www.w3.org/2000/svg">
<rect width="256" height="256" rx="128" fill="white"/>
<path d="M138 128C138 133.5 133.5 138 128 138C122.5 138 118 133.5 118 128C118 122.5 122.5 118 128 118C133.5 118 138 122.5 138 128ZM103 118C97.5 118 93 122.5 93 128C93 133.5 97.5 138 103 138C108.5 138 113 133.5 113 128C113 122.5 108.5 118 103 118ZM153 118C147.5 118 143 122.5 143 128C143 133.5 147.5 138 153 138C158.5 138 163 133.5 163 128C163 122.5 158.5 118 153 118ZM140.5 98C135 98 130.5 102.5 130.5 108C130.5 113.5 135 118 140.5 118C146 118 150.5 113.5 150.5 108C150.5 102.5 146 98 140.5 98ZM115.5 98C110 98 105.5 102.5 105.5 108C105.5 113.5 110 118 115.5 118C121 118 125.5 113.5 125.5 108C125.5 102.5 121 98 115.5 98ZM140.5 138C135 138 130.5 142.5 130.5 148C130.5 153.5 135 158 140.5 158C146 158 150.5 153.5 150.5 148C150.5 142.5 146 138 140.5 138ZM115.5 138C110 138 105.5 142.5 105.5 148C105.5 153.5 110 158 115.5 158C121 158 125.5 153.5 125.5 148C125.5 142.5 121 138 115.5 138ZM128 158C122.5 158 118 162.5 118 168C118 173.5 122.5 178 128 178C133.5 178 138 173.5 138 168C138 162.5 133.5 158 128 158ZM140 79L136 73C125 78 124 96 124 98H131.5C132 94 133.5 81.5 140 79Z" fill="#561010"/>
</svg>
