<svg width="164" height="30" viewBox="0 0 164 30" fill="none" xmlns="http://www.w3.org/2000/svg">
<path d="M12 0L14.6942 8.2918H23.4127L16.3593 13.4164L19.0534 21.7082L12 16.5836L4.94658 21.7082L7.64074 13.4164L0.587322 8.2918H9.30583L12 0Z" fill="#561010"/>
<path d="M46 0L48.6942 8.2918H57.4127L50.3593 13.4164L53.0534 21.7082L46 16.5836L38.9466 21.7082L41.6407 13.4164L34.5873 8.2918H43.3058L46 0Z" fill="#561010"/>
<g filter="url(#filter0_d_15_98)">
<path d="M80 0L82.6942 8.2918H91.4127L84.3593 13.4164L87.0534 21.7082L80 16.5836L72.9466 21.7082L75.6407 13.4164L68.5873 8.2918H77.3058L80 0Z" fill="#561010"/>
</g>
<path d="M114 0L116.694 8.2918H125.413L118.359 13.4164L121.053 21.7082L114 16.5836L106.947 21.7082L109.641 13.4164L102.587 8.2918H111.306L114 0Z" fill="#561010"/>
<g filter="url(#filter1_d_15_98)">
<path d="M148 0L150.694 8.2918H159.413L152.359 13.4164L155.053 21.7082L148 16.5836L140.947 21.7082L143.641 13.4164L136.587 8.2918H145.306L148 0Z" fill="#561010" fill-opacity="0.3" shape-rendering="crispEdges"/>
<path d="M148 1.61804L150.219 8.4463L150.331 8.7918H150.694H157.874L152.065 13.0119L151.771 13.2254L151.884 13.5709L154.102 20.3992L148.294 16.1791L148 15.9656L147.706 16.1791L141.898 20.3992L144.116 13.5709L144.229 13.2254L143.935 13.0119L138.126 8.7918H145.306H145.669L145.781 8.4463L148 1.61804Z" stroke="black" shape-rendering="crispEdges"/>
</g>
<defs>
<filter id="filter0_d_15_98" x="64.5873" y="0" width="30.8254" height="29.7083" filterUnits="userSpaceOnUse" color-interpolation-filters="sRGB">
<feFlood flood-opacity="0" result="BackgroundImageFix"/>
<feColorMatrix in="SourceAlpha" type="matrix" values="0 0 0 0 0 0 0 0 0 0 0 0 0 0 0 0 0 0 127 0" result="hardAlpha"/>
<feOffset dy="4"/>
<feGaussianBlur stdDeviation="2"/>
<feComposite in2="hardAlpha" operator="out"/>
<feColorMatrix type="matrix" values="0 0 0 0 0 0 0 0 0 0 0 0 0 0 0 0 0 0 0.25 0"/>
<feBlend mode="normal" in2="BackgroundImageFix" result="effect1_dropShadow_15_98"/>
<feBlend mode="normal" in="SourceGraphic" in2="effect1_dropShadow_15_98" result="shape"/>
</filter>
<filter id="filter1_d_15_98" x="132.587" y="0" width="30.8254" height="29.7083" filterUnits="userSpaceOnUse" color-interpolation-filters="sRGB">
<feFlood flood-opacity="0" result="BackgroundImageFix"/>
<feColorMatrix in="SourceAlpha" type="matrix" values="0 0 0 0 0 0 0 0 0 0 0 0 0 0 0 0 0 0 127 0" result="hardAlpha"/>
<feOffset dy="4"/>
<feGaussianBlur stdDeviation="2"/>
<feComposite in2="hardAlpha" operator="out"/>
<feColorMatrix type="matrix" values="0 0 0 0 0 0 0 0 0 0 0 0 0 0 0 0 0 0 0.25 0"/>
<feBlend mode="normal" in2="BackgroundImageFix" result="effect1_dropShadow_15_98"/>
<feBlend mode="normal" in="SourceGraphic" in2="effect1_dropShadow_15_98" result="shape"/>
</filter>
</defs>
</svg>
